Coordinates
version=1
nRows=10
nColumns=40
inDegrees=yes

Units are S.I. units (second, meters, Newtons, ...)
If the header above contains a line with 'inDegrees', this indicates whether rotational values are in degrees (yes) or radians (no).

endheader
time	pelvis_tilt	pelvis_list	pelvis_rotation	pelvis_tx	pelvis_ty	pelvis_tz	hip_flexion_r	hip_adduction_r	hip_rotation_r	knee_angle_r	knee_angle_r_beta	ankle_angle_r	subtalar_angle_r	mtp_angle_r	hip_flexion_l	hip_adduction_l	hip_rotation_l	knee_angle_l	knee_angle_l_beta	ankle_angle_l	subtalar_angle_l	mtp_angle_l	lumbar_extension	lumbar_bending	lumbar_rotation	arm_flex_r	arm_add_r	arm_rot_r	elbow_flex_r	pro_sup_r	wrist_flex_r	wrist_dev_r	arm_flex_l	arm_add_l	arm_rot_l	elbow_flex_l	pro_sup_l	wrist_flex_l	wrist_dev_l
      0.88500000	     -8.14000362	      1.37212802	     -2.33019842	      0.22629761	      0.88687619	     -1.21267963	     21.05555283	    -24.05541082	    -27.61849264	     24.27996268	      0.42376529	     -1.61191567	     -0.29839014	      0.00000000	     18.78485946	    -23.61780579	    -37.15216498	     24.48196739	      0.42729094	      0.84945583	     14.27597903	      0.00000000	     -4.48056526	     -0.82770152	      1.99283876	     44.95577411	    -15.00219877	     44.95577411	     75.00018943	     45.00000025	      0.00000000	      0.00000000	     44.95577411	    -15.00219877	     44.95577411	     75.00018943	     45.00000025	      0.00000000	      0.00000000
      0.89000000	     -8.35436847	      1.33662165	     -2.37147375	      0.22520941	      0.88541436	     -1.21251167	     21.76267041	    -24.15206964	    -27.26934345	     25.00833410	      0.43647777	     -1.39755293	     -0.59593767	      0.00000000	     19.43226248	    -23.94332674	    -36.94502995	     25.25088730	      0.44071112	      1.09543639	     14.01270825	      0.00000000	     -4.50468654	     -0.80719354	      2.03220940	     44.95663061	    -15.00214160	     44.95663061	     75.00018893	     45.00000025	      0.00000000	      0.00000000	     44.95663061	    -15.00214160	     44.95663061	     75.00018893	     45.00000025	      0.00000000	      0.00000000
      0.89500000	     -8.55918605	      1.30029938	     -2.40564906	      0.22410402	      0.88387907	     -1.21236707	     22.47428341	    -24.26848644	    -26.96605062	     25.77610064	      0.44987782	     -1.16499153	     -0.89609361	      0.00000000	     20.09490918	    -24.27039640	    -36.68217658	     26.06124812	      0.45485459	      1.33922458	     13.67110989	      0.00000000	     -4.55463866	     -0.78660708	      2.08222228	     44.95738780	    -15.00209172	     44.95738780	     75.00018849	     45.00000025	      0.00000000	      0.00000000	     44.95738780	    -15.00209172	     44.95738780	     75.00018849	     45.00000025	      0.00000000	      0.00000000
      0.90000000	     -8.77682637	      1.25423480	     -2.40772150	      0.22302905	      0.88227270	     -1.21233972	     23.16179408	    -24.37805620	    -26.64666807	     26.50496816	      0.46259896	     -0.92823339	     -1.12309925	      0.00000000	     20.78045132	    -24.58810222	    -36.38978756	     26.85286981	      0.46867099	      1.59287610	     13.35814161	      0.00000000	     -4.56943542	     -0.72751386	      2.05947542	     44.95811657	    -15.00204366	     44.95811657	     75.00018807	     45.00000025	      0.00000000	      0.00000000	     44.95811657	    -15.00204366	     44.95811657	     75.00018807	     45.00000025	      0.00000000	      0.00000000
      0.90500000	     -8.97629361	      1.16310707	     -2.50502080	      0.22209651	      0.88056359	     -1.21210422	     23.87247168	    -24.42898227	    -26.33976576	     27.30850982	      0.47662341	     -0.48714001	     -1.14190858	      0.00000000	     21.40329011	    -25.10146079	    -36.43196433	     27.76909315	      0.48466211	      2.07884422	     13.75035189	      0.00000000	     -4.59584416	     -0.63267353	      2.15275378	     44.95883572	    -15.00199621	     44.95883572	     75.00018766	     45.00000025	      0.00000000	      0.00000000	     44.95883572	    -15.00199621	     44.95883572	     75.00018766	     45.00000025	      0.00000000	      0.00000000
      0.91000000	     -9.20033875	      1.13338426	     -2.50150729	      0.22082693	      0.87885694	     -1.21202933	     24.61516481	    -24.56354130	    -26.03713783	     28.08994364	      0.49026200	     -0.32168249	     -1.47479375	      0.00000000	     22.14598583	    -25.36623800	    -35.96584581	     28.56345833	      0.49852639	      2.23469368	     13.09151723	      0.00000000	     -4.63815467	     -0.61962740	      2.15839893	     44.95954763	    -15.00194966	     44.95954763	     75.00018726	     45.00000025	      0.00000000	      0.00000000	     44.95954763	    -15.00194966	     44.95954763	     75.00018726	     45.00000025	      0.00000000	      0.00000000
      0.91500000	     -9.38078766	      1.10247073	     -2.52031964	      0.21980382	      0.87708328	     -1.21194423	     25.31325079	    -24.72829093	    -25.80363228	     28.93053131	      0.50493303	     -0.01052032	     -1.61846420	      0.00000000	     22.79254812	    -25.72346814	    -35.78718070	     29.41911325	      0.51346039	      2.59412137	     13.15008033	      0.00000000	     -4.69881905	     -0.57283519	      2.19227006	     44.96026580	    -15.00190176	     44.96026580	     75.00018684	     45.00000025	      0.00000000	      0.00000000	     44.96026580	    -15.00190176	     44.96026580	     75.00018684	     45.00000025	      0.00000000	      0.00000000
      0.92000000	     -9.58183368	      1.05957623	     -2.58758576	      0.21878284	      0.87522336	     -1.21175992	     26.04141582	    -24.84321493	    -25.50440605	     29.74142596	      0.51908581	      0.38235025	     -1.65263469	      0.00000000	     23.43537617	    -26.11653570	    -35.63747240	     30.26284341	      0.52818626	      2.98756104	     13.24485621	      0.00000000	     -4.72520338	     -0.53830667	      2.26538705	     44.96099335	    -15.00185353	     44.96099335	     75.00018642	     45.00000025	      0.00000000	      0.00000000	     44.96099335	    -15.00185353	     44.96099335	     75.00018642	     45.00000025	      0.00000000	      0.00000000
      0.92500000	     -9.80550910	      0.97999175	     -2.64699225	      0.21770169	      0.87324815	     -1.21158547	     26.78378095	    -24.92614148	    -25.24259635	     30.54852186	      0.53317229	      0.75818390	     -1.65009578	      0.00000000	     24.15467377	    -26.56305226	    -35.43806921	     31.17494111	      0.54410537	      3.32553096	     13.19999538	      0.00000000	     -4.73466320	     -0.45509768	      2.31405381	     44.96179158	    -15.00180054	     44.96179158	     75.00018596	     45.00000025	      0.00000000	      0.00000000	     44.96179158	    -15.00180054	     44.96179158	     75.00018596	     45.00000025	      0.00000000	      0.00000000
      0.93000000	     -9.98921701	      1.00614030	     -2.67776000	      0.21656025	      0.87137420	     -1.21146563	     27.53080844	    -25.12903328	    -24.94144486	     31.38718417	      0.54780971	      1.01258910	     -1.88202784	      0.00000000	     24.79330588	    -26.80151709	    -35.14832558	     31.93349832	      0.55734469	      3.60491638	     12.93971681	      0.00000000	     -4.80580041	     -0.49735530	      2.35692677	     44.96252608	    -15.00175282	     44.96252608	     75.00018557	     45.00000025	      0.00000000	      0.00000000	     44.96252608	    -15.00175282	     44.96252608	     75.00018557	     45.00000025	      0.00000000	      0.00000000
